<svg width="24" height="24" viewBox="0 0 24 24" fill="none" xmlns="http://www.w3.org/2000/svg">
<path d="M13.2433 15.8154V23.3736H10.082V15.8154H13.2433Z" fill="#B66BD1"/>
<path d="M15.4409 21.0348H7.88281V17.8735H15.4409V21.0348Z" fill="#B66BD1"/>
<path d="M11.6631 1C7.43125 1 4 4.43125 4 8.66312C4 12.895 7.43125 16.3262 11.6631 16.3262C15.895 16.3262 19.3263 12.895 19.3263 8.66312C19.3263 4.43125 15.895 1 11.6631 1V1ZM11.6631 13.1669C9.17688 13.1669 7.15938 11.1512 7.15938 8.66312C7.15938 6.17687 9.175 4.15938 11.6631 4.15938C14.1513 4.15938 16.1669 6.175 16.1669 8.66312C16.1669 11.1494 14.1494 13.1669 11.6631 13.1669Z" fill="#B66BD1"/>
</svg>
