<svg width="15" height="23" viewBox="0 0 15 23" fill="none" xmlns="http://www.w3.org/2000/svg">
<path d="M8.92406 15.0391V22.2823H5.89453V15.0391H8.92406Z" fill="#B66BD1"/>
<path d="M11.0313 20.0408H3.78809V17.0112H11.0313V20.0408Z" fill="#B66BD1"/>
<path d="M7.41023 0.84082C3.35469 0.84082 0.0664062 4.1291 0.0664062 8.18465C0.0664062 12.2402 3.35469 15.5285 7.41023 15.5285C11.4658 15.5285 14.7541 12.2402 14.7541 8.18465C14.7541 4.1291 11.4658 0.84082 7.41023 0.84082ZM7.41023 12.5007C5.02758 12.5007 3.09414 10.5691 3.09414 8.18465C3.09414 5.80199 5.02578 3.86855 7.41023 3.86855C9.79469 3.86855 11.7263 5.8002 11.7263 8.18465C11.7263 10.5673 9.79289 12.5007 7.41023 12.5007Z" fill="#B66BD1"/>
</svg>
