<svg width="133" height="106" viewBox="0 0 133 106" fill="none" xmlns="http://www.w3.org/2000/svg">
<g clip-path="url(#clip0)">
<path d="M53.4736 102.991C-12.9527 99.9206 0.222443 63.0097 15.1133 44.9383C26.6054 38.7012 53.6677 27.8582 69.9826 34.3832C94.8444 10.9701 95.88 32.9439 93.2904 46.8574C107.696 66.8479 119.9 106.062 53.4736 102.991Z" fill="white" stroke="white"/>
<path d="M12.5914 44.4406C11.6248 33.9354 14.4068 3.867 37.8916 31.9636C43.171 31.5596 49.3829 31.7019 56.7719 32.3677C59.4916 68.4466 21.0631 74.1628 2.77344 70.9649L3.94526 63.6501C6.62183 55.7804 9.22287 49.4436 12.6634 44.5553C12.6376 44.5183 12.6135 44.4801 12.5914 44.4406Z" fill="#F5B92B"/>
<path d="M12.5914 44.4407C11.6202 33.8856 14.4333 3.58103 38.2273 32.3677C38.2273 38.77 14.955 48.6479 12.5914 44.4407ZM2.77344 70.9649C21.0631 74.1628 59.4916 68.4467 56.7719 32.3677C20.2275 29.075 12.4692 38.5871 3.94526 63.6502L2.77344 70.9649Z" stroke="#F5B92B" stroke-linecap="round" stroke-linejoin="round"/>
<path fill-rule="evenodd" clip-rule="evenodd" d="M30.1676 63.1703C33.6541 63.1703 36.4805 60.3777 36.4805 56.9328C36.4805 53.4883 33.6541 50.6958 30.1676 50.6958C26.6819 50.6958 23.8555 53.4883 23.8555 56.9328C23.8555 60.3777 26.6819 63.1703 30.1676 63.1703ZM76.7824 64.1293C80.2688 64.1293 83.0952 61.3368 83.0952 57.8925C83.0952 54.4478 80.2688 51.6553 76.7824 51.6553C73.2966 51.6553 70.4702 54.4478 70.4702 57.8925C70.4702 61.3368 73.2966 64.1293 76.7824 64.1293Z" fill="#683C94"/>
<path fill-rule="evenodd" clip-rule="evenodd" d="M49.8387 64.648C49.0272 63.7148 49.7128 62.2902 50.9447 62.3396L57.0833 62.5882C58.3265 62.6383 58.8663 64.1144 57.9645 64.9789C56.941 65.9601 56.1004 66.8948 55.5918 68.0887C55.5236 68.2498 55.4347 68.401 55.3287 68.5371C55.3365 68.5636 55.3429 68.5908 55.3493 68.6173C56.0705 71.5666 58.6729 75.2673 62.5562 76.9426C66.3101 78.5619 71.5362 78.3943 77.8114 73.1065C78.4138 72.5987 79.3106 72.6789 79.8149 73.2856C80.3192 73.8922 80.2395 74.7961 79.6371 75.3039C72.704 81.1468 66.3577 81.699 61.436 79.5761C58.0861 78.1308 55.5264 75.4965 53.9823 72.7534C52.4418 75.5681 49.8586 78.2224 46.4589 79.6119C41.5138 81.6331 35.1717 80.8596 28.2621 74.8061C27.6697 74.2868 27.6071 73.3823 28.1227 72.7849C28.6384 72.1883 29.5366 72.1253 30.1298 72.6446C36.4278 78.163 41.6581 78.4824 45.3885 76.9576C49.2448 75.3812 51.8444 71.7085 52.5684 68.6294C52.5741 68.6008 52.5812 68.5721 52.589 68.5435C52.3621 68.29 52.1779 67.9863 52.0442 67.6797C51.6495 66.7759 50.8636 65.8269 49.8387 64.648Z" fill="#683C94"/>
<path fill-rule="evenodd" clip-rule="evenodd" d="M14.3675 43.8137C14.3717 43.9859 14.3587 44.1543 14.3298 44.3173C14.3607 44.7858 14.2402 45.2677 13.9538 45.6834C10.7853 50.2828 7.80432 56.0717 6.08115 62.1567C4.35563 68.2496 3.92946 74.4971 5.67845 80.1237C9.08026 91.0689 21.2807 101.042 53.0385 101.803C53.1033 101.804 53.1673 101.809 53.2306 101.816C53.2946 101.809 53.36 101.804 53.4254 101.803C85.2131 101.077 97.5011 91.667 100.981 81.4315C102.765 76.1874 102.404 70.3524 100.733 64.6284C99.0643 58.9115 96.1284 53.45 92.9705 49.0818C92.8013 48.8485 92.686 48.5925 92.622 48.3285C92.3738 47.8792 92.2614 47.3481 92.3326 46.7971C93.4769 37.9874 93.0687 32.5087 91.9378 29.3198C91.3866 27.7665 90.7046 26.8725 90.0573 26.3574C89.4272 25.8562 88.6754 25.5891 87.7366 25.5519C85.7181 25.4719 82.9998 26.4695 79.9273 28.3944C76.9323 30.2704 73.9345 32.8152 71.4544 35.3085C70.6002 36.1675 69.2844 36.2803 68.3186 35.6433C63.537 34.3143 57.6267 33.9773 52.2327 34.1631C46.8181 34.3496 42.1937 35.0519 40.0607 35.6504C38.7976 36.0049 37.4896 35.3114 37.0522 34.0888C34.7912 31.3013 32.021 28.4166 29.1825 26.2017C26.2373 23.9042 23.5445 22.5846 21.4436 22.4531C20.4629 22.3917 19.6467 22.5894 18.9316 23.0469C18.1979 23.5163 17.3951 24.373 16.6591 25.9155C15.1495 29.0797 14.1425 34.664 14.3675 43.8137ZM97.2244 47.6933C97.2472 47.6006 97.2649 47.5058 97.2777 47.409C98.452 38.3662 98.1689 31.9295 96.6369 27.6107C95.856 25.4102 94.7131 23.6524 93.1725 22.4266C91.6149 21.1869 89.8155 20.6238 87.9699 20.5506C84.4194 20.4099 80.6343 22.0706 77.3085 24.1538C74.3776 25.9897 71.5269 28.3308 69.086 30.6606C63.7347 29.2677 57.5029 28.9651 52.0627 29.1525C47.4959 29.3098 43.3089 29.8196 40.4739 30.4038C38.1198 27.5637 35.2507 24.6079 32.2244 22.2466C29.0445 19.7656 25.3603 17.6788 21.7323 17.4516C19.8474 17.3336 17.9604 17.7186 16.2465 18.8151C14.5513 19.8997 13.1993 21.5683 12.167 23.732C10.1402 27.9803 9.15729 34.5318 9.38808 43.917C9.39427 44.1674 9.43673 44.4085 9.51027 44.6351C6.47652 49.3066 3.67684 54.9772 1.97742 60.9778C0.106605 67.5842 -0.468922 74.732 1.60588 81.4079C5.85149 95.0676 20.6001 105.325 52.9375 106.099C53.0371 106.102 53.1353 106.097 53.2313 106.086C53.3266 106.097 53.424 106.102 53.5222 106.099C85.7494 105.364 100.619 95.7623 105.019 82.8239C107.176 76.4803 106.657 69.6877 104.827 63.4173C103.141 57.6388 100.307 52.1802 97.2244 47.6933Z" fill="#683C94"/>
<path d="M46.5933 35.343C46.0677 39.9157 46.0421 42.0708 46.5933 44.9385" stroke="#683C94" stroke-width="4" stroke-linecap="round"/>
<path d="M54.3648 35.343C53.8392 39.9157 53.8136 42.0708 54.3648 44.9385" stroke="#683C94" stroke-width="4" stroke-linecap="round"/>
<path d="M62.1318 35.343C61.607 39.9157 61.5813 42.0708 62.1318 44.9385" stroke="#683C94" stroke-width="4" stroke-linecap="round"/>
<path d="M124.574 2.75558C119.649 -3.1706 113.556 1.26636 110.878 4.67368C108.815 2.61943 100.146 -1.67994 96.3765 6.70451C92.2684 15.8411 106.327 22.2645 113.568 24.145C120.117 21.0225 131.299 10.8465 124.574 2.75558Z" fill="#CF2A2A"/>
<path d="M132.748 38.0255C134.626 33.9421 130.996 33.1166 128.664 33.2771C129.235 31.7205 129.439 26.7351 124.34 28.2491C118.783 29.8989 118.729 37.7865 119.424 41.336C122.492 42.8148 130.183 43.6004 132.748 38.0255Z" fill="#CF2A2A"/>
</g>
<defs>
<clipPath id="clip0">
<rect width="133" height="106" fill="white"/>
</clipPath>
</defs>
</svg>
