<svg width="162" height="143" viewBox="0 0 162 143" fill="none" xmlns="http://www.w3.org/2000/svg">
<path d="M138.389 59.6861C138.389 90.9438 112.589 116.372 80.6526 116.372C48.716 116.372 22.916 90.9438 22.916 59.6861C22.916 28.4284 48.716 3 80.6526 3C112.589 3 138.389 28.4284 138.389 59.6861Z" fill="#FBF7CF" stroke="#683C94" stroke-width="6"/>
<path d="M80.2784 91.7399C28.9897 89.3819 39.1624 61.0371 50.6599 47.1595C59.533 42.3699 80.4285 34.0433 93.0257 39.054C112.221 21.0745 113.021 37.9487 111.022 48.6332C122.144 63.9846 131.567 94.0978 80.2784 91.7399Z" fill="white" stroke="white"/>
<path d="M50.6124 46.9718C49.9583 38.7947 50.643 20.1978 66.9267 38.5126C71.2243 37.6623 76.154 37.5007 81.7783 38.3172C83.8779 66.0233 56.159 68.0374 42.0371 65.5812V61.5284C43.0214 57.4444 45.6998 51.7567 50.6124 46.9718Z" fill="#F5B92B" stroke="#F5B92B" stroke-linecap="round" stroke-linejoin="round"/>
<path fill-rule="evenodd" clip-rule="evenodd" d="M62.2821 61.1598C64.9739 61.1598 67.1561 59.0154 67.1561 56.3702C67.1561 53.725 64.9739 51.5806 62.2821 51.5806C59.5903 51.5806 57.4082 53.725 57.4082 56.3702C57.4082 59.0154 59.5903 61.1598 62.2821 61.1598ZM98.2742 61.8967C100.966 61.8967 103.148 59.7523 103.148 57.107C103.148 54.4618 100.966 52.3174 98.2742 52.3174C95.5824 52.3174 93.4003 54.4618 93.4003 57.107C93.4003 59.7523 95.5824 61.8967 98.2742 61.8967Z" fill="#683C94"/>
<path fill-rule="evenodd" clip-rule="evenodd" d="M78.7201 63.8344C77.7432 62.4228 78.5938 60.533 80.3102 60.6019L80.9929 60.6294C82.7406 60.6996 83.3512 62.6457 82.3736 64.0974C82.3204 64.1763 82.2693 64.2564 82.2204 64.3379C82.3465 64.4966 82.4498 64.6765 82.524 64.8736C82.5575 64.9619 82.5848 65.0528 82.6056 65.1457C83.1066 67.1552 84.9357 69.746 87.6464 70.9089C90.1739 71.9933 93.8529 71.9869 98.4891 68.1009C99.3356 67.3913 100.597 67.5024 101.307 68.3489C102.016 69.1954 101.905 70.4569 101.059 71.1664C95.497 75.8281 90.2404 76.3744 86.0694 74.5849C83.8023 73.6123 81.9734 71.994 80.6794 70.1993C79.3783 72.04 77.5203 73.6764 75.2014 74.6192C70.9969 76.3284 65.7466 75.5905 60.2183 70.7731C59.3856 70.0474 59.2988 68.7841 60.0244 67.9513C60.7501 67.1185 62.0134 67.0317 62.8462 67.7574C67.5156 71.8264 71.2009 71.9276 73.695 70.9137C76.3675 69.8272 78.1917 67.2704 78.6967 65.1631C78.7166 65.0702 78.7431 64.9792 78.7757 64.8907C78.8443 64.7033 78.9391 64.5312 79.0549 64.3776C78.9609 64.2006 78.8487 64.0203 78.7201 63.8344Z" fill="#683C94"/>
<path fill-rule="evenodd" clip-rule="evenodd" d="M51.1616 46.2727C51.1823 47.1094 50.8581 47.8731 50.3184 48.4285C47.9708 51.8623 45.7798 56.1391 44.5057 60.6138C43.2021 65.1917 42.9027 69.812 44.1885 73.9265C46.6475 81.795 55.5596 89.396 79.9627 89.9774C80.0057 89.9784 80.0484 89.9805 80.0908 89.9837C80.1341 89.9805 80.1778 89.9783 80.2217 89.9773C104.675 89.4223 113.648 82.2344 116.153 74.9091C117.456 71.0988 117.208 66.8064 115.95 62.5188C114.738 58.3896 112.632 54.4215 110.336 51.1914C109.531 50.5654 109.069 49.5421 109.211 48.4544C110.089 41.7389 109.747 37.7366 108.959 35.5296C108.583 34.4754 108.157 33.9748 107.85 33.7323C107.565 33.5068 107.212 33.3658 106.685 33.345C105.458 33.2966 103.591 33.9195 101.272 35.364C99.0486 36.7496 96.7979 38.6461 94.9245 40.5195C93.9409 41.5031 92.4483 41.67 91.301 41.0163C87.7848 40.0711 83.4122 39.8203 79.3571 39.9592C75.223 40.1008 71.7463 40.6342 70.2122 41.0623C68.7533 41.4693 67.2452 40.7248 66.6569 39.3749C64.9684 37.3202 62.9289 35.2226 60.8614 33.6182C58.6382 31.893 56.7737 31.0453 55.483 30.965C54.9228 30.9301 54.5253 31.0413 54.19 31.2547C53.8319 31.4826 53.3306 31.9658 52.8262 33.0173C51.7719 35.2151 50.9891 39.2966 51.1616 46.2727ZM115.144 49.356C115.154 49.301 115.163 49.2454 115.17 49.1892C116.084 42.1955 115.892 37.0476 114.623 33.4892C113.97 31.6608 112.988 30.125 111.605 29.0306C110.201 27.9192 108.584 27.4228 106.962 27.3588C103.888 27.2376 100.734 28.656 98.1122 30.2896C95.9483 31.6378 93.8525 33.3195 92.026 35.0114C87.8894 34.0282 83.2111 33.8236 79.1517 33.9627C75.9102 34.0737 72.8865 34.411 70.6553 34.8224C68.8814 32.7491 66.7681 30.6219 64.5321 28.8868C62.0264 26.9424 58.9671 25.1743 55.8337 24.9792C54.1818 24.8763 52.4921 25.2125 50.9519 26.1925C49.4346 27.158 48.2721 28.6141 47.4113 30.4086C45.735 33.9031 44.9814 39.1409 45.1608 46.3981C45.1663 46.6196 45.1957 46.835 45.2464 47.0418C43.009 50.5749 40.9657 54.7882 39.6968 59.2445C38.2236 64.4185 37.7496 70.0852 39.4162 75.4179C42.8619 86.4439 54.7575 94.3784 79.8436 94.976C79.9269 94.978 80.0093 94.9759 80.0908 94.9698C80.1713 94.9758 80.2528 94.9779 80.3352 94.9761C105.308 94.4092 117.304 86.9974 120.884 76.5267C122.623 71.439 122.192 66.0344 120.748 61.1109C119.486 56.8129 117.417 52.7527 115.144 49.356Z" fill="#683C94"/>
<path d="M74.9658 39.7905C74.5602 43.302 74.5405 44.957 74.9658 47.1592" stroke="#683C94" stroke-width="4" stroke-linecap="round"/>
<path d="M80.9648 39.7905C80.5592 43.302 80.5395 44.957 80.9648 47.1592" stroke="#683C94" stroke-width="4" stroke-linecap="round"/>
<path d="M86.9629 39.7905C86.5573 43.302 86.5375 44.957 86.9629 47.1592" stroke="#683C94" stroke-width="4" stroke-linecap="round"/>
<path d="M5.75883 89.5837L4.27807 84.831L1.7846 84.748L0.77294 81.5009L14.9809 82.2655L16.0999 85.8572L4.76308 94.3077L3.74011 91.0244L5.75883 89.5837ZM7.9118 88.0629L12.096 85.0779L6.93405 84.9247L7.9118 88.0629Z" fill="#683C94"/>
<path d="M15.3225 94.0152C15.9035 94.0703 16.4591 94.2857 16.9891 94.6614C17.5191 95.0372 17.9496 95.553 18.2805 96.2089C18.6742 96.9892 18.8315 97.7931 18.7525 98.6206C18.6734 99.4481 18.3551 100.223 17.7976 100.946C17.2457 101.679 16.4801 102.285 15.5008 102.762C14.5215 103.239 13.562 103.474 12.6221 103.467C11.6994 103.466 10.8733 103.248 10.1439 102.815C9.42581 102.376 8.86994 101.766 8.47626 100.986C8.13964 100.318 7.97676 99.6722 7.98762 99.047C8.00987 98.4163 8.17172 97.8514 8.47318 97.3523L7.14089 98.0014L5.67744 95.1006L18.3171 88.9425L19.7805 91.8432L15.3225 94.0152ZM14.0117 99.8103C14.7404 99.4553 15.2071 98.9743 15.4116 98.3675C15.6333 97.7664 15.5957 97.1718 15.2991 96.5837C15.0081 96.007 14.5492 95.6177 13.9225 95.4158C13.3015 95.2253 12.6266 95.3075 11.8978 95.6626C11.1691 96.0177 10.6939 96.4958 10.4722 97.0968C10.2563 97.7092 10.2938 98.3038 10.5848 98.8806C10.8758 99.4573 11.3346 99.8466 11.9614 100.048C12.5995 100.245 13.2829 100.165 14.0117 99.8103Z" fill="#683C94"/>
<path d="M21.3215 103.7C21.9046 103.664 22.4879 103.789 23.0712 104.077C23.6546 104.364 24.1616 104.806 24.5923 105.401C25.1047 106.109 25.3871 106.877 25.4396 107.706C25.492 108.535 25.2996 109.349 24.8624 110.149C24.4326 110.959 23.7712 111.676 22.8783 112.3C21.9854 112.924 21.0738 113.306 20.1435 113.447C19.231 113.59 18.38 113.505 17.5903 113.191C16.8111 112.871 16.1653 112.356 15.6529 111.648C15.2148 111.043 14.9517 110.431 14.8638 109.812C14.7862 109.187 14.8571 108.604 15.0764 108.065L13.8616 108.914L11.9569 106.282L23.4815 98.2276L25.3863 100.86L21.3215 103.7ZM20.9402 109.622C21.6047 109.158 21.9901 108.61 22.0966 107.979C22.2208 107.352 22.0899 106.771 21.7037 106.238C21.325 105.714 20.8099 105.402 20.1584 105.301C19.5143 105.21 18.8601 105.397 18.1956 105.862C17.5311 106.326 17.1367 106.872 17.0125 107.5C16.8957 108.138 17.0266 108.718 17.4053 109.241C17.784 109.765 18.2992 110.077 18.9506 110.178C19.6125 110.272 20.2757 110.086 20.9402 109.622Z" fill="#683C94"/>
<path d="M30.8995 119.642C30.6796 119.852 30.4372 120.057 30.1722 120.258L25.0035 115.028C24.5627 115.518 24.3431 116.017 24.3447 116.523C24.3644 117.029 24.5657 117.476 24.9486 117.864C25.5184 118.44 26.162 118.605 26.8794 118.358L29.3102 120.818C28.6816 121.173 28.001 121.376 27.2683 121.427C26.5446 121.488 25.8234 121.379 25.1046 121.103C24.3858 120.826 23.7237 120.381 23.1182 119.768C22.3881 119.03 21.8984 118.219 21.6493 117.336C21.4002 116.453 21.4131 115.566 21.6882 114.673C21.9633 113.78 22.4994 112.953 23.2966 112.192C24.0938 111.432 24.946 110.925 25.8532 110.672C26.7693 110.427 27.6727 110.441 28.5633 110.711C29.4538 110.982 30.2686 111.491 31.0076 112.238C31.7288 112.968 32.2141 113.766 32.4635 114.63C32.7129 115.495 32.7048 116.361 32.4392 117.227C32.1824 118.103 31.6692 118.908 30.8995 119.642ZM29.1808 116.687C29.5839 116.302 29.7711 115.861 29.7422 115.363C29.7133 114.866 29.4986 114.414 29.0979 114.009C28.715 113.621 28.2755 113.402 27.7793 113.35C27.292 113.307 26.8065 113.456 26.3226 113.795L29.1808 116.687Z" fill="#683C94"/>
<path d="M43.9105 122.646L28.9929 130.995L26.1977 128.895L31.4551 126.097L34.2942 115.423L37.1958 117.602L35.0844 124.308L41.1001 120.535L43.9105 122.646Z" fill="#683C94"/>
<path d="M47.8446 128.67C48.3653 127.46 49.0915 126.493 50.0234 125.769C50.9602 125.033 52.0092 124.598 53.1702 124.464C54.348 124.322 55.5334 124.499 56.7265 124.995C58.1887 125.602 59.2751 126.506 59.9858 127.707C60.6964 128.907 60.9419 130.244 60.7221 131.716L57.4235 130.345C57.3981 129.731 57.2149 129.196 56.8738 128.739C56.5445 128.286 56.0932 127.941 55.5201 127.703C54.596 127.319 53.7097 127.328 52.8612 127.73C52.0127 128.132 51.3582 128.868 50.8976 129.938C50.4371 131.009 50.3557 131.983 50.6535 132.861C50.9514 133.739 51.5623 134.37 52.4864 134.754C53.0596 134.992 53.626 135.07 54.1856 134.987C54.7569 134.909 55.2756 134.665 55.7415 134.255L59.0401 135.625C58.1185 136.806 56.972 137.564 55.6005 137.899C54.2341 138.223 52.8198 138.081 51.3576 137.474C50.1645 136.978 49.2068 136.272 48.4846 135.354C47.7791 134.43 47.3659 133.388 47.245 132.227C47.1242 131.065 47.324 129.88 47.8446 128.67Z" fill="#683C94"/>
<path d="M59.3088 134.395C59.5743 133.338 60.0043 132.458 60.5989 131.756C61.2057 131.056 61.9078 130.574 62.7052 130.312C63.5026 130.049 64.326 130.021 65.1753 130.227C65.9016 130.403 66.4984 130.704 66.966 131.131C67.4458 131.56 67.7732 132.05 67.9483 132.601L68.3141 131.145L71.4714 131.911L68.8875 142.193L65.7302 141.427L66.096 139.971C65.6679 140.376 65.1398 140.658 64.5118 140.819C63.8961 140.982 63.2251 140.976 62.4989 140.799C61.6618 140.596 60.9527 140.196 60.3714 139.599C59.7932 138.989 59.4013 138.236 59.1958 137.339C59.0056 136.433 59.0433 135.451 59.3088 134.395ZM67.0221 136.286C67.2197 135.5 67.154 134.826 66.8251 134.264C66.5085 133.705 66.0363 133.349 65.4085 133.196C64.7808 133.044 64.1882 133.141 63.6308 133.488C63.0889 133.826 62.7191 134.388 62.5215 135.174C62.324 135.961 62.3819 136.639 62.6954 137.211C63.0244 137.773 63.5027 138.13 64.1305 138.282C64.7583 138.435 65.3447 138.336 65.8897 137.986C66.4471 137.639 66.8246 137.072 67.0221 136.286Z" fill="#683C94"/>
<path d="M76.5818 139.9L76.2726 142.637L74.6294 142.458C73.4583 142.33 72.5774 141.947 71.9866 141.31C71.3972 140.659 71.1757 139.686 71.3221 138.389L71.7954 134.198L70.511 134.058L70.8138 131.377L72.0982 131.517L72.3881 128.949L75.618 129.302L75.328 131.869L77.4435 132.1L77.1407 134.781L75.0253 134.55L74.5477 138.779C74.5121 139.094 74.5621 139.329 74.6976 139.484C74.833 139.639 75.077 139.735 75.4296 139.774L76.5818 139.9Z" fill="#683C94"/>
<path d="M96.0006 138.96L91.0609 139.576L90.571 142.012L87.1962 142.433L90.2756 128.607L94.0087 128.141L100.507 140.772L97.0944 141.197L96.0006 138.96ZM94.8496 136.576L92.5835 131.938L91.5879 136.983L94.8496 136.576Z" fill="#683C94"/>
<path d="M99.5293 135.016C99.2133 133.974 99.1305 133.002 99.2807 132.1C99.443 131.194 99.8003 130.43 100.352 129.806C100.905 129.183 101.6 128.748 102.439 128.503C103.108 128.307 103.758 128.269 104.389 128.387C105.033 128.502 105.584 128.75 106.044 129.13L104.616 124.421L107.735 123.508L111.813 136.964L108.695 137.877L108.254 136.422C108.109 136.992 107.807 137.503 107.348 137.954C106.901 138.401 106.32 138.73 105.602 138.94C104.763 139.185 103.939 139.196 103.13 138.971C102.317 138.734 101.59 138.28 100.95 137.609C100.319 136.923 99.8453 136.059 99.5293 135.016ZM107.157 132.803C106.922 132.028 106.518 131.479 105.944 131.159C105.383 130.835 104.792 130.764 104.172 130.945C103.552 131.127 103.091 131.506 102.789 132.082C102.496 132.643 102.467 133.312 102.702 134.087C102.937 134.863 103.337 135.419 103.903 135.755C104.476 136.076 105.073 136.145 105.693 135.964C106.313 135.782 106.768 135.405 107.057 134.832C107.359 134.255 107.392 133.579 107.157 132.803Z" fill="#683C94"/>
<path d="M118.409 133.728C117.47 134.171 116.525 134.372 115.574 134.33C114.635 134.283 113.767 133.992 112.97 133.457C112.185 132.917 111.551 132.152 111.067 131.162C110.589 130.183 110.388 129.221 110.462 128.276C110.53 127.32 110.845 126.464 111.407 125.709C111.969 124.954 112.719 124.355 113.659 123.912C114.598 123.469 115.543 123.269 116.494 123.31C117.445 123.352 118.321 123.646 119.123 124.192C119.92 124.727 120.557 125.483 121.035 126.462C121.513 127.441 121.712 128.412 121.632 129.373C121.558 130.319 121.234 131.171 120.661 131.932C120.099 132.687 119.349 133.286 118.409 133.728ZM117.176 131.202C117.737 130.937 118.112 130.508 118.302 129.914C118.503 129.316 118.417 128.635 118.045 127.872C117.672 127.11 117.191 126.615 116.602 126.389C116.024 126.158 115.454 126.174 114.892 126.439C114.32 126.709 113.944 127.138 113.766 127.726C113.583 128.303 113.68 128.978 114.058 129.752C114.43 130.515 114.9 131.015 115.466 131.251C116.044 131.483 116.614 131.466 117.176 131.202Z" fill="#683C94"/>
<path d="M122.862 120.254C122.839 119.672 122.971 119.1 123.257 118.539C123.543 117.977 123.995 117.486 124.613 117.065C125.335 116.574 126.118 116.31 126.959 116.274C127.801 116.237 128.627 116.442 129.436 116.887C130.256 117.325 130.979 117.99 131.606 118.88C132.233 119.771 132.615 120.676 132.75 121.594C132.889 122.496 132.796 123.332 132.472 124.104C132.141 124.865 131.614 125.491 130.891 125.983C130.284 126.396 129.657 126.638 129.01 126.71C128.374 126.775 127.787 126.7 127.248 126.484L131.011 131.828L128.324 133.655L119.311 120.854L121.998 119.027L122.862 120.254ZM128.872 120.739C128.405 120.076 127.852 119.687 127.213 119.57C126.576 119.436 125.986 119.555 125.441 119.925C124.907 120.288 124.586 120.79 124.479 121.429C124.382 122.062 124.567 122.709 125.034 123.372C125.5 124.035 126.052 124.433 126.688 124.567C127.335 124.694 127.926 124.576 128.46 124.213C128.994 123.85 129.315 123.348 129.422 122.709C129.522 122.059 129.339 121.402 128.872 120.739Z" fill="#683C94"/>
<path d="M138.033 115.872L139.913 117.886L138.685 118.993C137.81 119.781 136.933 120.188 136.055 120.212C135.168 120.227 134.28 119.757 133.39 118.803L130.512 115.719L129.552 116.584L127.711 114.612L128.671 113.747L126.908 111.858L129.322 109.683L131.085 111.572L132.666 110.147L134.506 112.12L132.926 113.544L135.829 116.656C136.045 116.888 136.257 117.004 136.465 117.004C136.673 117.004 136.909 116.885 137.172 116.648L138.033 115.872Z" fill="#683C94"/>
<path d="M134.396 106.366C134.017 106.792 133.581 107.035 133.087 107.095C132.592 107.137 132.157 106.997 131.782 106.675C131.397 106.345 131.198 105.94 131.184 105.461C131.169 104.964 131.35 104.502 131.729 104.076C132.099 103.659 132.532 103.43 133.027 103.388C133.521 103.328 133.96 103.463 134.345 103.793C134.72 104.115 134.915 104.524 134.93 105.022C134.944 105.501 134.766 105.949 134.396 106.366ZM136.305 105.877L144.348 112.784L142.189 115.212L134.146 108.305L136.305 105.877Z" fill="#683C94"/>
<path d="M150.595 104.395C150.014 105.256 149.303 105.911 148.463 106.361C147.631 106.801 146.735 106.995 145.776 106.943C144.824 106.881 143.887 106.549 142.964 105.946C142.052 105.351 141.387 104.628 140.967 103.779C140.537 102.923 140.37 102.028 140.467 101.093C140.564 100.158 140.904 99.2606 141.486 98.4002C142.068 97.5398 142.778 96.8846 143.618 96.4345C144.457 95.9845 145.362 95.7887 146.332 95.8471C147.291 95.8986 148.226 96.2222 149.138 96.8179C150.05 97.4136 150.718 98.1446 151.141 99.0109C151.561 99.8599 151.718 100.757 151.614 101.702C151.517 102.637 151.177 103.535 150.595 104.395ZM148.241 102.858C148.589 102.344 148.692 101.783 148.552 101.177C148.419 100.561 147.997 100.02 147.286 99.5564C146.575 99.0923 145.909 98.914 145.286 99.0214C144.67 99.1182 144.188 99.4238 143.84 99.9379C143.485 100.462 143.382 101.023 143.529 101.618C143.666 102.207 144.095 102.737 144.817 103.208C145.527 103.672 146.187 103.861 146.796 103.774C147.412 103.677 147.893 103.372 148.241 102.858Z" fill="#683C94"/>
<path d="M147.358 87.0857C147.888 85.963 148.678 85.2373 149.729 84.9088C150.774 84.5636 151.936 84.6824 153.216 85.2651L158.853 87.8322L157.475 90.7536L152.236 88.3676C151.59 88.0737 151.011 88.0114 150.497 88.1809C149.983 88.3504 149.593 88.7159 149.328 89.2773C149.064 89.8386 149.032 90.3668 149.232 90.8618C149.433 91.3568 149.856 91.7513 150.502 92.0452L155.741 94.4312L154.355 97.3699L144.707 92.9759L146.092 90.0372L147.372 90.62C147.086 90.1278 146.941 89.5746 146.936 88.9603C146.92 88.3407 147.061 87.7158 147.358 87.0857Z" fill="#683C94"/>
<path d="M160.28 82.2337C160.015 83.1194 159.626 83.8639 159.114 84.4674C158.603 85.0709 158.025 85.4971 157.382 85.746C156.727 85.9913 156.063 86.0431 155.392 85.9014L156.314 82.8257C156.678 82.8915 157.013 82.8105 157.319 82.5827C157.626 82.355 157.842 82.0288 157.97 81.6041C158.086 81.2159 158.102 80.8975 158.018 80.6489C157.926 80.3847 157.757 80.2174 157.514 80.1469C157.222 80.0624 156.964 80.1524 156.739 80.4169C156.502 80.678 156.196 81.1235 155.822 81.7537C155.434 82.4323 155.075 82.9878 154.747 83.4203C154.407 83.8492 153.984 84.1815 153.477 84.4171C152.957 84.6491 152.351 84.6647 151.658 84.4639C151.073 84.2948 150.592 83.9838 150.212 83.5309C149.823 83.0624 149.582 82.4782 149.488 81.7784C149.397 81.0664 149.481 80.2797 149.739 79.4183C150.121 78.1444 150.738 77.235 151.589 76.6903C152.443 76.1334 153.41 75.9519 154.489 76.1457L153.627 79.0212C153.26 78.9675 152.932 79.0442 152.645 79.2512C152.362 79.4461 152.157 79.7559 152.03 80.1805C151.92 80.5445 151.91 80.8447 151.998 81.0811C152.073 81.314 152.233 81.4657 152.476 81.5362C152.768 81.6207 153.032 81.5325 153.269 81.2714C153.51 80.9983 153.802 80.5552 154.144 79.9424C154.564 79.2465 154.943 78.6902 155.279 78.2734C155.604 77.853 156.032 77.5286 156.563 77.3001C157.086 77.0559 157.702 77.0299 158.411 77.2221C159.007 77.3948 159.492 77.7197 159.864 78.1968C160.228 78.6583 160.45 79.2432 160.528 79.9517C160.61 80.648 160.528 81.4086 160.28 82.2337Z" fill="#683C94"/>
</svg>
