<svg width="21" height="21" viewBox="0 0 21 21" fill="none" xmlns="http://www.w3.org/2000/svg">
<path d="M20.4153 0.620361V8.03427H17.4648V0.620361H20.4153Z" fill="#4E5452"/>
<path d="M20.4334 3.56985H13.0195V0.619385H20.4334V3.56985Z" fill="#4E5452"/>
<path d="M18.8361 4.28539L13.1731 9.94842L11.0869 7.86225L16.7498 2.19922L18.8361 4.28539Z" fill="#4E5452"/>
<path d="M12.9245 8.11009C10.0567 5.24228 5.40637 5.24228 2.53855 8.11009C-0.329258 10.9779 -0.329258 15.6282 2.53855 18.496C5.40637 21.3638 10.0567 21.3638 12.9245 18.496C15.7923 15.6282 15.7923 10.9779 12.9245 8.11009ZM4.68043 16.3541C2.99496 14.6687 2.99496 11.9374 4.68043 10.252C6.3659 8.56649 9.09715 8.56649 10.7826 10.252C12.4681 11.9374 12.4681 14.6687 10.7826 16.3541C9.09894 18.0396 6.3659 18.0396 4.68043 16.3541Z" fill="#4E5452"/>
</svg>
