<svg width="24" height="24" viewBox="0 0 24 24" fill="none" xmlns="http://www.w3.org/2000/svg">
<path d="M22.9814 1.00098V9.13808H19.7432V1.00098H22.9814Z" fill="#4E5452"/>
<path d="M23.0004 4.23828H14.8633V1H23.0004V4.23828Z" fill="#4E5452"/>
<path d="M21.2473 5.02356L15.0319 11.239L12.7422 8.94932L18.9574 2.73389L21.2473 5.02356Z" fill="#4E5452"/>
<path d="M14.7597 9.22151C11.6122 6.07395 6.50822 6.07395 3.36067 9.22151C0.213111 12.3691 0.213111 17.473 3.36067 20.6206C6.50822 23.7681 11.6122 23.7681 14.7597 20.6206C17.9073 17.473 17.9073 12.3691 14.7597 9.22151ZM5.71147 18.2697C3.86159 16.4199 3.86159 13.4222 5.71147 11.5723C7.56135 9.72243 10.559 9.72243 12.4089 11.5723C14.2588 13.4222 14.2588 16.4199 12.4089 18.2697C10.561 20.1196 7.56135 20.1196 5.71147 18.2697Z" fill="#4E5452"/>
</svg>
